<svg id="Capa_1" enable-background="new 0 0 512 512" height="512" viewBox="0 0 512 512" width="512" xmlns="http://www.w3.org/2000/svg"><g><path d="m431.921 179.18c0-25.215-21.153-45.729-47.155-45.729-6.103 0-11.94 1.13-17.299 3.186v-60.113c0-25.214-21.153-45.728-47.155-45.728-6.648 0-12.98 1.342-18.723 3.759-5.154-19.832-23.702-34.555-45.732-34.555-18.649 0-34.804 10.551-42.449 25.822-6.573-3.377-14.064-5.291-22.005-5.291-26.002 0-47.156 20.514-47.156 45.727v18.327c-5.305-2.018-11.075-3.126-17.106-3.126-25.95 0-47.062 20.514-47.062 45.758l.402 204.814c0 47.815 18.276 92.909 51.461 126.976 33.289 34.174 77.413 52.993 124.241 52.993 46.829 0 90.952-18.819 124.24-52.992 33.185-34.066 51.462-79.16 51.462-126.976 0 0 .017-83.809.036-152.852zm-30.036 152.852c0 39.949-15.254 77.609-42.95 106.042-27.594 28.326-64.085 43.926-102.752 43.926-38.666 0-75.157-15.6-102.751-43.926-27.696-28.433-42.95-66.093-42.95-106.071l-.402-204.814c0-8.673 7.654-15.729 17.062-15.729s17.061 7.056 17.061 15.729v100.56c0 8.284 6.76 15 15.044 15s15-6.716 15-15v-161.49c0-8.672 7.696-15.727 17.156-15.727s17.155 7.056 17.155 15.727v131.49c0 8.284 6.716 15 15 15h.143c8.284 0 15-6.716 15-15v-152.02c0-8.673 7.696-15.729 17.156-15.729s17.155 7.056 17.155 15.742l.143 152.02c.008 8.28 6.721 14.987 15 14.986h.007c8.281-.004 14.993-6.719 14.993-15v-121.224c0-8.672 7.696-15.727 17.156-15.727s17.155 7.056 17.155 15.727v191.225c0 8.284 6.716 15 15 15h.143c8.284 0 15-6.716 15-15v-88.569c0-8.673 7.696-15.729 17.156-15.729s17.155 7.056 17.155 15.725c-.007 28.48-.035 152.856-.035 152.856z"/><path d="m303.994 250.394c-5.857-5.857-15.355-5.857-21.213 0l-12.644 12.644-11.144-11.144c-5.857-5.857-15.355-5.857-21.213 0s-5.858 15.355 0 21.213l11.144 11.144-17.379 17.379-11.143-11.143c-5.857-5.857-15.355-5.857-21.213 0-5.858 5.858-5.858 15.355 0 21.213l11.143 11.143-17.379 17.379-11.143-11.143c-5.857-5.858-15.355-5.858-21.213 0-5.858 5.857-5.858 15.355 0 21.213l11.143 11.143-12.644 12.644c-5.858 5.857-5.858 15.355 0 21.213 2.929 2.929 6.768 4.394 10.606 4.394 3.839 0 7.678-1.465 10.607-4.394l12.644-12.643 11.143 11.143c2.929 2.93 6.768 4.394 10.606 4.394s7.678-1.465 10.607-4.394c5.858-5.857 5.858-15.355 0-21.213l-11.143-11.143 17.38-17.38 11.144 11.144c2.929 2.929 6.768 4.394 10.606 4.394s7.678-1.465 10.606-4.394c5.858-5.857 5.858-15.355 0-21.213l-11.144-11.144 17.379-17.379 11.144 11.144c2.929 2.929 6.767 4.394 10.606 4.394s7.678-1.465 10.606-4.394c5.858-5.857 5.858-15.355 0-21.213l-11.144-11.144 12.644-12.644c5.86-5.858 5.86-15.356.001-21.213z"/></g></svg>